<svg width="36" height="36" viewBox="0 0 36 36" fill="none" xmlns="http://www.w3.org/2000/svg">
<path d="M23.939 16.2451H19.349L18.209 19.6801H21.644C22.904 19.6801 23.939 20.7001 23.939 21.9751C23.939 23.2351 22.919 24.2701 21.644 24.2701H18.209" stroke="#FF5757" stroke-width="2" stroke-linecap="round" stroke-linejoin="round"/>
<path d="M14.3096 24.2551V16.2451L12.0596 18.7501" stroke="#FF5757" stroke-width="2" stroke-linecap="round" stroke-linejoin="round"/>
<path d="M20.969 6.70496L17.999 3" stroke="#FF5757" stroke-width="2" stroke-linecap="round" stroke-linejoin="round"/>
<path d="M28.6351 11.6999C30.3001 13.9199 31.3351 16.6649 31.3351 19.6649C31.3351 27.0299 25.3651 32.9999 18.0001 32.9999C10.6351 32.9999 4.66504 27.0299 4.66504 19.6649C4.66504 12.2999 10.6351 6.32983 18.0001 6.32983C19.0201 6.32983 20.01 6.46491 20.97 6.68991" stroke="#FF5757" stroke-width="2" stroke-linecap="round" stroke-linejoin="round"/>
</svg>
