<svg width="20" height="20" viewBox="0 0 20 20" fill="none" xmlns="http://www.w3.org/2000/svg">
<path d="M10 19C5.032 19 1 14.968 1 10C1 5.032 5.032 1 10 1C14.968 1 19 5.032 19 10C19 14.968 14.968 19 10 19Z" stroke="white" stroke-linecap="round" stroke-linejoin="round"/>
<path d="M8.98518 11.9356C8.52618 12.3316 7.93217 12.5836 7.28417 12.5836C5.86217 12.5836 4.70117 11.4316 4.70117 10.0006C4.70117 8.5696 5.85317 7.4176 7.28417 7.4176C7.94117 7.4176 8.53518 7.66058 8.98518 8.06558" stroke="white" stroke-linecap="round" stroke-linejoin="round"/>
<path d="M15.2938 11.9356C14.8348 12.3316 14.2408 12.5836 13.5928 12.5836C12.1708 12.5836 11.0098 11.4316 11.0098 10.0006C11.0098 8.5696 12.1618 7.4176 13.5928 7.4176C14.2498 7.4176 14.8438 7.66058 15.2938 8.06558" stroke="white" stroke-linecap="round" stroke-linejoin="round"/>
</svg>
