<svg width="22" height="22" viewBox="0 0 22 22" fill="none" xmlns="http://www.w3.org/2000/svg">
<path d="M12.7239 9.62522C12.6172 9.62542 12.5115 9.60449 12.4129 9.56363C12.3143 9.52277 12.2248 9.46279 12.1495 9.38716C10.8824 8.12007 8.82067 8.11966 7.55317 9.38716C7.47822 9.46476 7.38857 9.52666 7.28944 9.56924C7.19031 9.61182 7.08369 9.63424 6.97581 9.63518C6.86793 9.63611 6.76094 9.61556 6.66108 9.5747C6.56123 9.53385 6.47051 9.47352 6.39423 9.39723C6.31794 9.32094 6.25761 9.23023 6.21675 9.13037C6.1759 9.03052 6.15534 8.92353 6.15628 8.81565C6.15722 8.70776 6.17963 8.60115 6.22221 8.50202C6.2648 8.40289 6.32669 8.31324 6.4043 8.23829C8.30514 6.33704 11.3979 6.33744 13.2984 8.23829C13.412 8.35191 13.4893 8.49667 13.5206 8.65426C13.552 8.81185 13.5359 8.97519 13.4744 9.12363C13.4129 9.27207 13.3088 9.39896 13.1752 9.48824C13.0416 9.57752 12.8846 9.62519 12.7239 9.62522ZM12.1495 14.2601C10.9011 14.2601 9.65267 13.7848 8.70245 12.8346C8.62485 12.7596 8.56295 12.67 8.52037 12.5709C8.47779 12.4717 8.45537 12.3651 8.45444 12.2572C8.4535 12.1494 8.47406 12.0424 8.51491 11.9425C8.55576 11.8427 8.61609 11.7519 8.69238 11.6757C8.76867 11.5994 8.85939 11.539 8.95924 11.4982C9.05909 11.4573 9.16608 11.4368 9.27397 11.4377C9.38185 11.4386 9.48846 11.4611 9.58759 11.5036C9.68672 11.5462 9.77638 11.6081 9.85133 11.6857C11.1184 12.9528 13.1801 12.9532 14.4476 11.6857C14.5226 11.6081 14.6122 11.5462 14.7114 11.5036C14.8105 11.4611 14.9171 11.4386 15.025 11.4377C15.1329 11.4368 15.2399 11.4573 15.3397 11.4982C15.4396 11.539 15.5303 11.5994 15.6066 11.6757C15.6829 11.7519 15.7432 11.8427 15.7841 11.9425C15.8249 12.0424 15.8455 12.1494 15.8445 12.2572C15.8436 12.3651 15.8212 12.4717 15.7786 12.5709C15.736 12.67 15.6741 12.7596 15.5965 12.8346C15.1441 13.2875 14.6067 13.6465 14.0152 13.8911C13.4236 14.1358 12.7896 14.2612 12.1495 14.2601Z" fill="white"/>
<path d="M15.0218 13.0723C14.8611 13.0723 14.7041 13.0246 14.5705 12.9354C14.4369 12.8461 14.3328 12.7192 14.2713 12.5708C14.2098 12.4223 14.1938 12.259 14.2251 12.1014C14.2564 11.9438 14.3338 11.799 14.4474 11.6854L18.986 7.14679C19.061 7.06918 19.1506 7.00729 19.2497 6.9647C19.3489 6.92212 19.4555 6.89971 19.5634 6.89877C19.6712 6.89783 19.7782 6.91839 19.8781 6.95924C19.9779 7.0001 20.0687 7.06043 20.1449 7.13671C20.2212 7.213 20.2816 7.30372 20.3224 7.40357C20.3633 7.50343 20.3838 7.61042 20.3829 7.7183C20.382 7.82618 20.3595 7.9328 20.317 8.03193C20.2744 8.13106 20.2125 8.22071 20.1349 8.29566L15.5963 12.8343C15.521 12.9099 15.4314 12.9699 15.3328 13.0108C15.2342 13.0516 15.1285 13.0725 15.0218 13.0723ZM8.18544 19.9087C8.02477 19.9087 7.86772 19.861 7.73413 19.7717C7.60055 19.6825 7.49644 19.5556 7.43496 19.4071C7.37347 19.2587 7.35738 19.0953 7.38872 18.9378C7.42006 18.7802 7.49741 18.6354 7.61101 18.5218L10.148 15.9848C10.223 15.9072 10.3126 15.8453 10.4118 15.8027C10.5109 15.7601 10.6175 15.7377 10.7254 15.7367C10.8333 15.7358 10.9403 15.7564 11.0401 15.7972C11.14 15.8381 11.2307 15.8984 11.307 15.9747C11.3833 16.051 11.4436 16.1417 11.4845 16.2415C11.5253 16.3414 11.5459 16.4484 11.5449 16.5563C11.544 16.6642 11.5216 16.7708 11.479 16.8699C11.4364 16.969 11.3745 17.0587 11.2969 17.1336L8.75988 19.6707C8.68459 19.7463 8.59506 19.8063 8.49647 19.8471C8.39787 19.888 8.29217 19.9089 8.18544 19.9087ZM2.44026 14.1635C2.27958 14.1635 2.12253 14.1158 1.98895 14.0265C1.85536 13.9373 1.75125 13.8104 1.68977 13.6619C1.62829 13.5135 1.6122 13.3502 1.64353 13.1926C1.67487 13.035 1.75222 12.8902 1.86582 12.7766L6.40444 8.23838C6.47939 8.16078 6.56905 8.09888 6.66818 8.0563C6.76731 8.01371 6.87392 7.9913 6.98181 7.99036C7.08969 7.98943 7.19668 8.00998 7.29653 8.05084C7.39638 8.09169 7.4871 8.15202 7.56339 8.22831C7.63968 8.3046 7.70001 8.39531 7.74086 8.49517C7.78171 8.59502 7.80227 8.70201 7.80133 8.80989C7.8004 8.91778 7.77798 9.02439 7.7354 9.12352C7.69282 9.22265 7.63092 9.3123 7.55332 9.38725L3.01469 13.9255C2.85585 14.0839 2.64785 14.1635 2.44026 14.1635ZM11.2782 5.32597C11.1176 5.32594 10.9605 5.27827 10.8269 5.18899C10.6933 5.09971 10.5892 4.97282 10.5277 4.82438C10.4663 4.67594 10.4502 4.5126 10.4815 4.35501C10.5128 4.19742 10.5902 4.05266 10.7038 3.93904L13.2408 1.4016C13.3932 1.24919 13.5999 1.16357 13.8155 1.16357C14.031 1.16357 14.2377 1.24919 14.3901 1.4016C14.5425 1.554 14.6281 1.76071 14.6281 1.97624C14.6281 2.19177 14.5425 2.39848 14.3901 2.55088L11.8531 5.08832C11.7005 5.24054 11.4938 5.32601 11.2782 5.32597Z" fill="white"/>
<path d="M5.31246 21.0722C4.05593 21.0722 2.7994 20.605 1.86543 19.6706C-0.00332034 17.8019 -0.00332034 14.6449 1.86543 12.7762C1.94038 12.6986 2.03004 12.6367 2.12916 12.5941C2.22829 12.5515 2.33491 12.5291 2.44279 12.5281C2.55067 12.5272 2.65766 12.5478 2.75752 12.5886C2.85737 12.6295 2.94809 12.6898 3.02438 12.7661C3.10066 12.8424 3.16099 12.9331 3.20185 13.0329C3.2427 13.1328 3.26326 13.2398 3.26232 13.3477C3.26138 13.4556 3.23897 13.5622 3.19639 13.6613C3.1538 13.7604 3.09191 13.8501 3.0143 13.925C1.76874 15.1706 1.76874 17.2758 3.0143 18.5213C4.25987 19.7669 6.36505 19.7669 7.61062 18.5213C7.68557 18.4437 7.77522 18.3818 7.87435 18.3393C7.97348 18.2967 8.0801 18.2743 8.18798 18.2733C8.29586 18.2724 8.40285 18.2929 8.5027 18.3338C8.60256 18.3747 8.69328 18.435 8.76956 18.5113C8.84585 18.5876 8.90618 18.6783 8.94703 18.7781C8.98789 18.878 9.00845 18.985 9.00751 19.0929C9.00657 19.2007 8.98416 19.3074 8.94157 19.4065C8.89899 19.5056 8.83709 19.5953 8.75949 19.6702C7.82552 20.605 6.56899 21.0722 5.31246 21.0722ZM19.5601 8.53369C19.3994 8.53365 19.2423 8.48598 19.1087 8.3967C18.9752 8.30742 18.871 8.18054 18.8096 8.03209C18.7481 7.88365 18.732 7.72031 18.7633 7.56272C18.7947 7.40514 18.872 7.26038 18.9856 7.14675C20.2312 5.90119 20.2312 3.796 18.9856 2.55044C17.7401 1.30487 15.6349 1.30487 14.3893 2.55044C14.3144 2.62804 14.2247 2.68994 14.1256 2.73252C14.0264 2.7751 13.9198 2.79752 13.8119 2.79845C13.7041 2.79939 13.5971 2.77883 13.4972 2.73798C13.3974 2.69713 13.3066 2.6368 13.2304 2.56051C13.1541 2.48422 13.0937 2.3935 13.0529 2.29365C13.012 2.1938 12.9915 2.08681 12.9924 1.97892C12.9934 1.87104 13.0158 1.76442 13.0583 1.6653C13.1009 1.56617 13.1628 1.47651 13.2404 1.40156C15.1092 -0.467188 18.2661 -0.467188 20.1349 1.40156C22.0036 3.27031 22.0036 6.42728 20.1349 8.29603C19.9761 8.45447 19.7681 8.53369 19.5601 8.53369Z" fill="white"/>
</svg>
