<svg width="21" height="19" viewBox="0 0 21 19" fill="none" xmlns="http://www.w3.org/2000/svg">
<path d="M8.35079 18.5582C12.7631 18.5582 16.34 14.9813 16.34 10.569C16.34 6.15665 12.7631 2.57976 8.35079 2.57976C3.93847 2.57976 0.361572 6.15665 0.361572 10.569C0.361572 14.9813 3.93847 18.5582 8.35079 18.5582Z" fill="#FF5757" fill-opacity="0.2"/>
<path d="M8.44126 16.7441L8.33992 16.5714C6.79205 13.9341 2.67876 8.3374 2.63722 8.28119L2.57788 8.20058L3.97925 6.81564L8.41524 9.91316C11.2082 6.28882 13.8139 3.79945 15.5136 2.34576C17.3729 0.755563 18.5832 0.0234898 18.5954 0.0164746L18.6229 0H21.0001L20.773 0.20222C14.9332 5.40372 8.60347 16.459 8.54042 16.5701L8.44126 16.7441Z" fill="#FF5757"/>
</svg>
