<svg width="20" height="20" viewBox="0 0 20 20" fill="none" xmlns="http://www.w3.org/2000/svg">
<path fill-rule="evenodd" clip-rule="evenodd" d="M7.05 0.25C4.72603 0.25 2.90414 0.710201 1.68217 1.93217C0.460201 3.15414 0 4.97603 0 7.3V12.7C0 15.024 0.460201 16.8459 1.68217 18.0678C2.90414 19.2898 4.72603 19.75 7.05 19.75H12.45C14.774 19.75 16.5959 19.2898 17.8178 18.0678C19.0398 16.8459 19.5 15.024 19.5 12.7V7.3C19.5 4.97603 19.0398 3.15414 17.8178 1.93217C16.5959 0.710201 14.774 0.25 12.45 0.25H7.05ZM1.75996 4.84901C1.96911 4.03547 2.30099 3.43467 2.74283 2.99283C3.38867 2.34699 4.37414 1.9361 5.86719 1.79998V4.84901H1.75996ZM7.36719 4.84901V1.75H12.1328V4.84901H7.36719ZM13.6328 4.84901H17.74C17.5309 4.03547 17.199 3.43467 16.7572 2.99283C16.1113 2.34699 15.1259 1.9361 13.6328 1.79998V4.84901ZM1.53135 6.34901C1.51054 6.64648 1.5 6.96307 1.5 7.3V12.7C1.5 14.876 1.9398 16.2041 2.74283 17.0072C3.54586 17.8102 4.87397 18.25 7.05 18.25H12.45C14.626 18.25 15.9541 17.8102 16.7572 17.0072C17.5602 16.2041 18 14.876 18 12.7V7.3C18 6.96307 17.9895 6.64648 17.9687 6.34901H1.53135Z" fill="white" fill-opacity="0.5"/>
<path d="M7.72461 12.205V11.125C7.72461 9.739 8.70561 9.172 9.90261 9.865L10.8386 10.405L11.7746 10.945C12.9716 11.638 12.9716 12.772 11.7746 13.465L10.8386 14.005L9.90261 14.545C8.70561 15.238 7.72461 14.671 7.72461 13.285V12.205V12.205Z" stroke="white" stroke-opacity="0.5" stroke-width="1.5" stroke-miterlimit="10" stroke-linecap="round" stroke-linejoin="round"/>
</svg>
