<svg width="20" height="20" viewBox="0 0 20 20" fill="none" xmlns="http://www.w3.org/2000/svg">
<path d="M14.3496 3.88739L11.366 1.57748C10.981 1.19249 10.1148 1 9.5373 1H5.87993C4.72498 1 3.47378 1.86622 3.18504 3.02117L0.875128 10.0472C0.393896 11.3946 1.26011 12.5496 2.70381 12.5496H6.55366C7.13114 12.5496 7.61237 13.0308 7.51612 13.7045L7.03489 16.7844C6.8424 17.6506 7.41988 18.6131 8.28609 18.9018C9.05606 19.1905 10.0185 18.8056 10.4035 18.2281L14.3496 12.3571" stroke="#D9D9D9" stroke-width="1.5" stroke-miterlimit="10"/>
<path d="M19.2578 3.88738V13.3195C19.2578 14.667 18.6803 15.1482 17.3329 15.1482H16.3704C15.023 15.1482 14.4455 14.667 14.4455 13.3195V3.88738C14.4455 2.53993 15.023 2.0587 16.3704 2.0587H17.3329C18.6803 2.0587 19.2578 2.53993 19.2578 3.88738Z" stroke="#D9D9D9" stroke-width="1.5" stroke-linecap="round" stroke-linejoin="round"/>
</svg>
