<svg width="62" height="57" viewBox="0 0 62 57" fill="none" xmlns="http://www.w3.org/2000/svg">
<path d="M61 47.2104C59.515 49.9399 57.4369 53.5708 55.5379 55.9759M55.5379 55.9759C55.3192 56.2531 53.8451 54.0474 53.7857 53.9399C52.4786 51.583 51.5157 49.1248 50.5874 46.5982M55.5379 55.9759C60.2019 39.7084 53.8688 23.83 43.0016 18.8946C41.9246 18.4054 40.7518 17.8741 39.5375 17.451M39.5375 17.451C37.6036 16.7772 35.5644 16.3778 33.6387 16.8596C31.8615 17.3044 29.731 18.6432 29.2164 20.5146C28.2554 24.0103 32.1298 26.7891 35.3372 25.5051C38.1558 24.3768 40.2907 20.3943 39.5375 17.451ZM39.5375 17.451C39.5216 17.3889 39.5044 17.3273 39.4859 17.2662C35.0253 2.51324 10.695 -3.92045 1 4" stroke="black" stroke-miterlimit="1.5" stroke-linecap="round" stroke-linejoin="round"/>
</svg>
