<svg width="158" height="79" viewBox="0 0 158 79" fill="none" xmlns="http://www.w3.org/2000/svg">
<mask id="path-1-inside-1_159_76" fill="white">
<path d="M158 0C158 20.9521 149.677 41.0461 134.861 55.8614C120.046 70.6768 99.9521 79 79 79C58.0479 79 37.954 70.6768 23.1386 55.8615C8.32321 41.0461 1.31544e-05 20.9521 0 5.34058e-05L79 0H158Z"/>
</mask>
<path d="M158 0C158 20.9521 149.677 41.0461 134.861 55.8614C120.046 70.6768 99.9521 79 79 79C58.0479 79 37.954 70.6768 23.1386 55.8615C8.32321 41.0461 1.31544e-05 20.9521 0 5.34058e-05L79 0H158Z" stroke="#FFED8E" stroke-width="6" stroke-dasharray="12 12" mask="url(#path-1-inside-1_159_76)"/>
</svg>
