<svg width="25" height="24" viewBox="0 0 25 24" fill="none" xmlns="http://www.w3.org/2000/svg">
<path d="M22.5 8.27V4.23C22.5 2.64 21.86 2 20.27 2H16.23C14.64 2 14 2.64 14 4.23V8.27C14 9.86 14.64 10.5 16.23 10.5H20.27C21.86 10.5 22.5 9.86 22.5 8.27Z" stroke="white" stroke-opacity="0.3" stroke-width="1.5" stroke-linecap="round" stroke-linejoin="round"/>
<circle cx="6.25" cy="6.25" r="4.25" stroke="white" stroke-opacity="0.3" stroke-width="1.5"/>
<path d="M10.5 19.77V15.73C10.5 14.14 9.86 13.5 8.27 13.5H4.23C2.64 13.5 2 14.14 2 15.73V19.77C2 21.36 2.64 22 4.23 22H8.27C9.86 22 10.5 21.36 10.5 19.77Z" stroke="white" stroke-opacity="0.3" stroke-width="1.5" stroke-linecap="round" stroke-linejoin="round"/>
<path d="M18.186 21.4222C18.2832 21.5832 18.5166 21.5832 18.6139 21.4222L22.3835 15.1858C22.4842 15.0192 22.3642 14.8065 22.1695 14.8065H14.6304C14.4357 14.8065 14.3157 15.0192 14.4164 15.1858L18.186 21.4222Z" stroke="white" stroke-opacity="0.3" stroke-width="1.5"/>
</svg>
