<svg width="20" height="20" viewBox="0 0 20 20" fill="none" xmlns="http://www.w3.org/2000/svg">
<path d="M5.65039 16.1126L8.63403 18.4225C9.01901 18.8075 9.88523 19 10.4627 19H14.1201C15.275 19 16.5262 18.1338 16.815 16.9788L19.1249 9.95285C19.6061 8.6054 18.7399 7.45045 17.2962 7.45045H13.4463C12.8689 7.45045 12.3876 6.96921 12.4839 6.29549L12.9651 3.21561C13.1576 2.34939 12.5801 1.38693 11.7139 1.09819C10.9439 0.809451 9.98147 1.19444 9.59649 1.77191L5.65039 7.64294" stroke="#D9D9D9" stroke-width="1.5" stroke-miterlimit="10"/>
<path d="M0.742188 16.1126V6.68049C0.742188 5.33304 1.31967 4.85181 2.66711 4.85181H3.62958C4.97702 4.85181 5.5545 5.33304 5.5545 6.68049V16.1126C5.5545 17.4601 4.97702 17.9413 3.62958 17.9413H2.66711C1.31967 17.9413 0.742188 17.4601 0.742188 16.1126Z" stroke="#D9D9D9" stroke-width="1.5" stroke-linecap="round" stroke-linejoin="round"/>
</svg>
