<svg width="36" height="36" viewBox="0 0 36 36" fill="none" xmlns="http://www.w3.org/2000/svg">
<path fill-rule="evenodd" clip-rule="evenodd" d="M29.9573 6.04305C28.3217 4.40753 25.6786 4.40753 24.0431 6.04305L21.8228 8.26334C21.8177 8.26824 21.8126 8.27321 21.8075 8.27824C21.8025 8.28328 21.7975 8.28835 21.7926 8.29347L4.54305 25.5431C2.90753 27.1786 2.90753 29.8217 4.54305 31.4573C6.17857 33.0928 8.82174 33.0928 10.4573 31.4573L29.9573 11.9573C31.5928 10.3217 31.5928 7.67857 29.9573 6.04305ZM22.5148 10.3997L5.95726 26.9573C5.10279 27.8117 5.10279 29.1886 5.95726 30.043C6.81174 30.8975 8.18857 30.8975 9.04305 30.043L25.6006 13.4855L22.5148 10.3997ZM27.0148 12.0713L28.543 10.543C29.3975 9.68857 29.3975 8.31174 28.543 7.45726C27.6886 6.60279 26.3117 6.60279 25.4573 7.45726L23.929 8.98551L27.0148 12.0713Z" fill="#FF5757"/>
<path d="M12.75 3.66L15 3L14.34 5.25L15 7.5L12.75 6.84L10.5 7.5L11.16 5.25L10.5 3L12.75 3.66Z" stroke="#FF5757" stroke-width="1.5" stroke-linecap="round" stroke-linejoin="round"/>
<path d="M6.75 12.66L9 12L8.34 14.25L9 16.5L6.75 15.84L4.5 16.5L5.16 14.25L4.5 12L6.75 12.66Z" stroke="#FF5757" stroke-width="1.5" stroke-linecap="round" stroke-linejoin="round"/>
<path d="M29.25 20.16L31.5 19.5L30.84 21.75L31.5 24L29.25 23.34L27 24L27.66 21.75L27 19.5L29.25 20.16Z" stroke="#FF5757" stroke-width="1.5" stroke-linecap="round" stroke-linejoin="round"/>
</svg>
