<svg width="21" height="19" viewBox="0 0 21 19" fill="none" xmlns="http://www.w3.org/2000/svg">
<path d="M8.35055 18.5582C12.7629 18.5582 16.3398 14.9813 16.3398 10.569C16.3398 6.15665 12.7629 2.57975 8.35055 2.57975C3.93822 2.57975 0.361328 6.15665 0.361328 10.569C0.361328 14.9813 3.93822 18.5582 8.35055 18.5582Z" fill="#FF5757" fill-opacity="0.2"/>
<path d="M8.4415 16.7441L8.34017 16.5714C6.79229 13.9341 2.67901 8.3374 2.63746 8.28119L2.57812 8.20058L3.9795 6.81564L8.41548 9.91316C11.2085 6.28882 13.8142 3.79945 15.5139 2.34576C17.3732 0.755563 18.5835 0.0234898 18.5957 0.0164746L18.6232 0H21.0003L20.7732 0.20222C14.9334 5.40372 8.60371 16.459 8.54067 16.5701L8.4415 16.7441Z" fill="#FF5757"/>
</svg>
