<svg width="44" height="44" viewBox="0 0 44 44" fill="none" xmlns="http://www.w3.org/2000/svg">
<path d="M0.994409 9.10144C1.52282 4.84648 4.84647 1.52282 9.10144 0.994409C13.1125 0.49628 18.0899 0 22 0C25.9101 0 30.8875 0.49628 34.8986 0.994409C39.1535 1.52282 42.4772 4.84647 43.0056 9.10144C43.5037 13.1125 44 18.0899 44 22C44 25.9101 43.5037 30.8875 43.0056 34.8986C42.4772 39.1535 39.1535 42.4772 34.8986 43.0056C30.8875 43.5037 25.9101 44 22 44C18.0899 44 13.1125 43.5037 9.10144 43.0056C4.84648 42.4772 1.52282 39.1535 0.994409 34.8986C0.49628 30.8875 0 25.9101 0 22C0 18.0899 0.49628 13.1125 0.994409 9.10144Z" fill="#F6F5FD"/>
<path d="M17.7973 20.8044C17.9564 20.8046 18.109 20.7414 18.2215 20.6289C18.3339 20.5164 18.3972 20.3637 18.397 20.2047C18.397 19.8735 18.6656 19.6048 18.9969 19.6048C19.3281 19.6048 19.5967 19.8735 19.5967 20.2047C19.5967 20.536 19.8652 20.8044 20.1964 20.8044C20.5279 20.8044 20.7963 20.5359 20.7963 20.2047C20.7963 19.2108 19.9906 18.4053 18.9969 18.4053C18.0032 18.4053 17.1974 19.2108 17.1974 20.2047C17.1974 20.2835 17.2129 20.3615 17.243 20.4343C17.2732 20.5071 17.3173 20.5732 17.3731 20.6289C17.4288 20.6846 17.4949 20.7288 17.5677 20.7589C17.6405 20.789 17.7185 20.8044 17.7973 20.8044ZM25.9265 24.7666C23.6864 25.8864 20.306 25.8864 18.0655 24.7666C17.7692 24.6183 17.409 24.7385 17.2607 25.0348C17.1127 25.3311 17.2326 25.6916 17.5289 25.8396C18.9249 26.4981 20.4525 26.8299 21.9959 26.8097C23.5392 26.8298 25.0669 26.4981 26.4629 25.8396C26.7592 25.6916 26.8793 25.3311 26.7313 25.0348C26.5831 24.7384 26.2228 24.6183 25.9265 24.7666V24.7666Z" fill="black" stroke="black" stroke-width="0.5"/>
<path d="M32.1933 19.6046H31.5934V17.8051C31.5919 16.1496 30.25 14.8077 28.5944 14.8062H26.7949V13.4959C27.6211 13.204 28.1169 12.3589 27.9686 11.4952C27.8203 10.6313 27.0714 10 26.195 10C25.3185 10 24.5697 10.6313 24.4215 11.4952C24.2732 12.359 24.769 13.204 25.5951 13.4959V14.8061H18.3973V13.4959C19.2237 13.204 19.7192 12.3589 19.5712 11.4952C19.423 10.6313 18.6741 10 17.7977 10C16.9212 10 16.1722 10.6313 16.0242 11.4952C15.8759 12.359 16.3715 13.204 17.1978 13.4959V14.8061H15.3983C13.7428 14.8079 12.4011 16.1496 12.3993 17.8052V19.6046H11.7994C10.8062 19.6057 10.0011 20.4108 10 21.4041V23.8034C10.0011 24.7967 10.8062 25.6017 11.7994 25.6029H12.3993V28.002C12.4011 29.6577 13.7428 30.9995 15.3983 31.0012H18.3974V33.4003C18.3974 33.5074 18.4262 33.6125 18.4805 33.7047C18.5349 33.7969 18.613 33.873 18.7066 33.9249C18.8003 33.9767 18.906 34.0026 19.013 33.9998C19.12 33.997 19.2243 33.9656 19.3151 33.9088L23.9679 31.0012H28.5944C30.25 30.9996 31.5919 29.6578 31.5934 28.002V25.6029H32.1933C33.1866 25.6017 33.9916 24.7967 33.9927 23.8034V21.404C33.9916 20.4107 33.1866 19.6057 32.1933 19.6046ZM26.195 11.2073C26.5263 11.2073 26.7949 11.4757 26.7949 11.807C26.7949 12.1384 26.5263 12.4069 26.195 12.4069C25.8638 12.4069 25.5952 12.1384 25.5952 11.807C25.5958 11.4762 25.8641 11.2079 26.195 11.2073ZM17.7977 11.2073C18.129 11.2073 18.3974 11.4757 18.3974 11.807C18.3974 12.1384 18.129 12.4069 17.7977 12.4069C17.4664 12.4069 17.1978 12.1384 17.1978 11.807C17.1982 11.4759 17.4665 11.2078 17.7977 11.2073ZM11.7994 24.4031C11.4685 24.4028 11.2 24.1344 11.1996 23.8034V21.404C11.2 21.073 11.4685 20.8046 11.7994 20.8041H12.3993V24.403L11.7994 24.4031ZM30.3938 28.002C30.3927 28.9955 29.5877 29.8005 28.5944 29.8014H23.7957C23.6835 29.8014 23.5734 29.833 23.4783 29.8928L19.5971 32.3178V30.4013C19.5971 30.2422 19.5339 30.0896 19.4214 29.9771C19.3089 29.8646 19.1563 29.8014 18.9972 29.8014H15.3983C14.4051 29.8005 13.6 28.9954 13.5989 28.0019V17.8051C13.6 16.8118 14.4051 16.0068 15.3983 16.0057H28.5944C29.5877 16.0068 30.3927 16.8118 30.3938 17.8051V28.002ZM32.7929 23.8034C32.7926 24.1344 32.5243 24.4026 32.1933 24.4031H31.5934V20.8042H32.1933C32.5243 20.8048 32.7926 21.073 32.7929 21.4041V23.8034Z" fill="black" stroke="black" stroke-width="0.5"/>
<path d="M24.9957 18.4053C24.0024 18.4064 23.1974 19.2114 23.1963 20.2047C23.1963 20.5359 23.4647 20.8044 23.796 20.8044C24.1274 20.8044 24.3958 20.5359 24.3958 20.2047C24.3958 19.8735 24.6645 19.6048 24.9957 19.6048C25.327 19.6048 25.5954 19.8735 25.5954 20.2047C25.5954 20.536 25.8641 20.8044 26.1953 20.8044C26.5266 20.8044 26.7952 20.5359 26.7952 20.2047C26.7941 19.2114 25.989 18.4064 24.9957 18.4053Z" fill="black" stroke="black" stroke-width="0.5"/>
</svg>
