<svg width="36" height="36" viewBox="0 0 36 36" fill="none" xmlns="http://www.w3.org/2000/svg">
<path fill-rule="evenodd" clip-rule="evenodd" d="M4.36581 9.66504C4.71552 8.11766 5.31289 6.97632 6.14461 6.14461C7.31726 4.97195 9.10542 4.26515 11.7793 4.06151V9.66504H4.36581ZM13.7793 9.66504V4H22.2188V9.66504H13.7793ZM24.2188 9.66504H31.6342C31.2845 8.11766 30.6871 6.97632 29.8554 6.14461C28.6825 4.97166 26.8937 4.26481 24.2188 4.06136V9.66504ZM4.07056 11.665C4.02364 12.235 4 12.8457 4 13.5V22.5C4 26.1514 4.7364 28.4472 6.14461 29.8554C7.55281 31.2636 9.84863 32 13.5 32H21.2769C21.2218 31.9156 21.1685 31.8302 21.1171 31.7438C20.4138 30.5764 20 29.1999 20 27.75C20 25.6532 20.8262 23.7392 22.1891 22.3418L22.1894 22.3414C23.6008 20.8957 25.581 20 27.75 20C29.3129 20 30.78 20.4638 32 21.2679V13.5C32 12.8457 31.9764 12.235 31.9294 11.665H4.07056ZM23.9704 32.0512C23.9468 32.0276 23.8935 31.9743 23.8111 31.9159C23.4349 31.5767 23.1006 31.1664 22.8345 30.7189L22.8345 30.7189L22.8314 30.7137C22.3056 29.8416 22 28.819 22 27.75C22 26.1868 22.6139 24.7707 23.6209 23.7382C24.6695 22.6642 26.1392 22 27.75 22C29.4091 22 30.9107 22.7011 31.9383 23.8222L31.9402 23.8248C31.9501 23.8385 31.9641 23.8571 31.9814 23.8782C31.9985 23.899 32.0225 23.9267 32.0529 23.9571C32.085 23.9892 32.1173 24.0286 32.1379 24.0597C32.3731 24.4124 32.8052 24.5786 33.2161 24.4742C33.627 24.3699 33.9275 24.0177 33.9659 23.5955C34 23.22 34 22.8513 34 22.5192V22.5V13.5C34 9.65137 33.2364 6.69718 31.2696 4.73039C29.3028 2.7636 26.3486 2 22.5 2H13.5C9.65137 2 6.69718 2.7636 4.73039 4.73039C2.7636 6.69718 2 9.65137 2 13.5V22.5C2 26.3486 2.7636 29.3028 4.73039 31.2696C6.69718 33.2364 9.65137 34 13.5 34H22.5H22.522H22.5221H22.5222H22.5222C22.8515 34 23.2369 34 23.5998 33.9655C24.0017 33.9272 24.3411 33.6511 24.4604 33.2654C24.5796 32.8797 24.4553 32.4602 24.1452 32.2017L24.099 32.1634C24.0256 32.1022 24.0009 32.0818 23.9721 32.0529L23.9704 32.0512Z" fill="#FF5757"/>
<path d="M34.5 27.75C34.5 28.29 34.44 28.815 34.305 29.325C34.14 30 33.87 30.645 33.525 31.23C32.355 33.18 30.21 34.5 27.75 34.5C26.13 34.5 24.66 33.93 23.52 32.97C23.505 32.97 23.505 32.97 23.505 32.97C23.415 32.895 23.34 32.835 23.265 32.76C23.25 32.745 23.235 32.73 23.205 32.715C22.725 32.295 22.305 31.785 21.975 31.23C21.36 30.21 21 29.01 21 27.75C21 25.92 21.72 24.255 22.905 23.04C24.135 21.78 25.86 21 27.75 21C29.715 21 31.5 21.84 32.715 23.19C32.73 23.205 32.745 23.235 32.76 23.25C32.835 23.325 32.91 23.415 32.97 23.505C33.93 24.66 34.5 26.145 34.5 27.75Z" stroke="#FF5757" stroke-width="2" stroke-miterlimit="10" stroke-linecap="round" stroke-linejoin="round"/>
<path fill-rule="evenodd" clip-rule="evenodd" d="M28.75 25.2598C28.75 24.7075 28.3023 24.2598 27.75 24.2598C27.1977 24.2598 26.75 24.7075 26.75 25.2598V26.7197H25.2305C24.6782 26.7197 24.2305 27.1674 24.2305 27.7197C24.2305 28.272 24.6782 28.7197 25.2305 28.7197H26.75V30.2997C26.75 30.852 27.1977 31.2997 27.75 31.2997C28.3023 31.2997 28.75 30.852 28.75 30.2997V28.7197H30.2704C30.8227 28.7197 31.2704 28.272 31.2704 27.7197C31.2704 27.1674 30.8227 26.7197 30.2704 26.7197H28.75V25.2598Z" fill="#FF5757"/>
</svg>
