<svg width="18" height="18" viewBox="0 0 18 18" fill="none" xmlns="http://www.w3.org/2000/svg">
<path d="M10.0728 11.2501H3.30025C1.93525 11.2501 1.06525 9.78759 1.72525 8.58759L3.47275 5.40758L5.10775 2.43008C5.79025 1.19258 7.57525 1.19258 8.25775 2.43008L9.90025 5.40758L10.6878 6.84008L11.6478 8.58759C12.3078 9.78759 11.4378 11.2501 10.0728 11.2501Z" stroke="white" stroke-linecap="round" stroke-linejoin="round"/>
<path d="M16.5 11.625C16.5 14.3175 14.3175 16.5 11.625 16.5C8.9325 16.5 6.75 14.3175 6.75 11.625C6.75 11.4975 6.7575 11.3775 6.765 11.25H10.0725C11.4375 11.25 12.3075 9.78751 11.6475 8.58751L10.6875 6.84C10.9875 6.78 11.3025 6.75 11.625 6.75C14.3175 6.75 16.5 8.9325 16.5 11.625Z" stroke="white" stroke-linecap="round" stroke-linejoin="round"/>
</svg>
