<svg width="18" height="20" viewBox="0 0 18 20" fill="none" xmlns="http://www.w3.org/2000/svg">
<path d="M13.8156 13.1076C12.966 13.1076 12.2004 13.48 11.6691 14.0725L6.89017 11.0683C7.02138 10.7279 7.08864 10.3655 7.0885 10C7.08867 9.63446 7.0214 9.27212 6.89017 8.93171L11.6691 5.92736C12.2004 6.51981 12.966 6.8924 13.8156 6.8924C15.4162 6.8924 16.7184 5.57073 16.7184 3.94613C16.7184 2.32152 15.4162 1 13.8156 1C12.2151 1 10.9129 2.32166 10.9129 3.94627C10.9129 4.31179 10.9801 4.6741 11.1113 5.01453L6.33245 8.01877C5.80112 7.42632 5.03562 7.05373 4.18594 7.05373C2.58534 7.05373 1.2832 8.37554 1.2832 10C1.2832 11.6246 2.58534 12.9463 4.18594 12.9463C5.03558 12.9463 5.80116 12.5738 6.33245 11.9812L11.1113 14.9855C10.9801 15.3259 10.9129 15.6883 10.9129 16.0539C10.9129 17.6783 12.215 19 13.8156 19C15.4162 19 16.7184 17.6783 16.7184 16.0539C16.7184 14.4293 15.4162 13.1076 13.8156 13.1076ZM11.9714 3.94627C11.9714 2.91408 12.7987 2.07434 13.8156 2.07434C14.8325 2.07434 15.6599 2.91408 15.6599 3.94627C15.6599 4.97846 14.8326 5.8182 13.8156 5.8182C12.7987 5.8182 11.9714 4.97842 11.9714 3.94627ZM4.18594 11.8719C3.16887 11.8719 2.34153 11.0322 2.34153 10C2.34153 8.96785 3.16887 8.12807 4.18594 8.12807C5.20288 8.12807 6.03007 8.96785 6.03007 10C6.03007 11.0322 5.20284 11.8719 4.18594 11.8719ZM11.9714 16.0538C11.9714 15.0216 12.7987 14.1818 13.8156 14.1818C14.8325 14.1818 15.6599 15.0216 15.6599 16.0537C15.6599 17.0859 14.8326 17.9257 13.8156 17.9257C12.7987 17.9257 11.9714 17.0859 11.9714 16.0537V16.0538Z" fill="#D9D9D9" stroke="#D9D9D9"/>
</svg>
