<svg width="20" height="20" viewBox="0 0 20 20" fill="none" xmlns="http://www.w3.org/2000/svg">
<path d="M15 5.83317V14.1665C15 14.6832 14.9833 15.1415 14.925 15.5498C14.6833 17.7415 13.65 18.3332 10.8333 18.3332H9.16667C6.35 18.3332 5.31667 17.7415 5.075 15.5498C5.01667 15.1415 5 14.6832 5 14.1665V5.83317C5 5.3165 5.01667 4.85817 5.075 4.44984C5.31667 2.25817 6.35 1.6665 9.16667 1.6665H10.8333C13.65 1.6665 14.6833 2.25817 14.925 4.44984C14.9833 4.85817 15 5.3165 15 5.83317Z" stroke="black" stroke-width="1.5" stroke-linecap="round" stroke-linejoin="round"/>
<path d="M4.99935 14.1669C4.99935 14.6836 5.01602 15.1419 5.07435 15.5502C4.95768 15.5586 4.84935 15.5586 4.72435 15.5586H4.44102C2.22435 15.5586 1.66602 15.0002 1.66602 12.7752V7.22523C1.66602 5.00023 2.22435 4.44189 4.44102 4.44189H4.72435C4.84935 4.44189 4.95768 4.44189 5.07435 4.45023C5.01602 4.85856 4.99935 5.31689 4.99935 5.83356V14.1669Z" stroke="black" stroke-width="1.5" stroke-linecap="round" stroke-linejoin="round"/>
<path d="M18.3341 7.22523V12.7752C18.3341 15.0002 17.7758 15.5586 15.5591 15.5586H15.2758C15.1508 15.5586 15.0424 15.5586 14.9258 15.5502C14.9841 15.1419 15.0008 14.6836 15.0008 14.1669V5.83356C15.0008 5.31689 14.9841 4.85856 14.9258 4.45023C15.0424 4.44189 15.1508 4.44189 15.2758 4.44189H15.5591C17.7758 4.44189 18.3341 5.00023 18.3341 7.22523Z" stroke="black" stroke-width="1.5" stroke-linecap="round" stroke-linejoin="round"/>
</svg>
