<svg width="24" height="24" viewBox="0 0 24 24" fill="none" xmlns="http://www.w3.org/2000/svg">
<path fill-rule="evenodd" clip-rule="evenodd" d="M3.84023 3.31995C3.23445 3.31995 2.74023 3.81416 2.74023 4.41995V5.92995C2.74023 6.34416 2.40445 6.67995 1.99023 6.67995C1.57602 6.67995 1.24023 6.34416 1.24023 5.92995V4.41995C1.24023 2.98573 2.40602 1.81995 3.84023 1.81995H16.7602C18.1944 1.81995 19.3602 2.98573 19.3602 4.41995V5.92995C19.3602 6.34416 19.0244 6.67995 18.6102 6.67995C18.196 6.67995 17.8602 6.34416 17.8602 5.92995V4.41995C17.8602 3.81416 17.366 3.31995 16.7602 3.31995H11.0508V17.35H12.4804C12.8946 17.35 13.2304 17.6858 13.2304 18.1C13.2304 18.5142 12.8946 18.85 12.4804 18.85H6.90039C6.48618 18.85 6.15039 18.5142 6.15039 18.1C6.15039 17.6858 6.48618 17.35 6.90039 17.35H9.55078V3.31995H3.84023Z" fill="white" fill-opacity="0.3"/>
<path fill-rule="evenodd" clip-rule="evenodd" d="M12.9297 10.34C12.9297 9.92575 13.2655 9.58997 13.6797 9.58997H20.6897C21.8339 9.58997 22.7597 10.5158 22.7597 11.66V12.46C22.7597 12.8742 22.4239 13.21 22.0097 13.21C21.5955 13.21 21.2597 12.8742 21.2597 12.46V11.66C21.2597 11.3442 21.0055 11.09 20.6897 11.09H16.8301V20.6801H18.2214C18.6356 20.6801 18.9714 21.0158 18.9714 21.4301C18.9714 21.8443 18.6356 22.1801 18.2214 22.1801H13.9414C13.5272 22.1801 13.1914 21.8443 13.1914 21.4301C13.1914 21.0158 13.5272 20.6801 13.9414 20.6801H15.3301V11.09H13.6797C13.2655 11.09 12.9297 10.7542 12.9297 10.34Z" fill="white" fill-opacity="0.3"/>
</svg>
