<svg width="36" height="36" viewBox="0 0 36 36" fill="none" xmlns="http://www.w3.org/2000/svg">
<path fill-rule="evenodd" clip-rule="evenodd" d="M7.10988 5.91992C5.94902 5.91992 5.00488 6.85535 5.00488 8.02492V10.7549C5.00488 11.3072 4.55717 11.7549 4.00488 11.7549C3.4526 11.7549 3.00488 11.3072 3.00488 10.7549V8.02492C3.00488 5.74449 4.85075 3.91992 7.10988 3.91992H28.8899C31.1703 3.91992 32.9949 5.76579 32.9949 8.02492V10.7549C32.9949 11.3072 32.5472 11.7549 31.9949 11.7549C31.4426 11.7549 30.9949 11.3072 30.9949 10.7549V8.02492C30.9949 6.86406 30.0595 5.91992 28.8899 5.91992H18.9697C18.9895 5.99835 19 6.08047 19 6.16504V30.0801H23.9098C24.4621 30.0801 24.9098 30.5278 24.9098 31.0801C24.9098 31.6324 24.4621 32.0801 23.9098 32.0801H12.0898C11.5376 32.0801 11.0898 31.6324 11.0898 31.0801C11.0898 30.5278 11.5376 30.0801 12.0898 30.0801H17V6.16504C17 6.08047 17.0105 5.99835 17.0303 5.91992H7.10988Z" fill="#FF5757"/>
</svg>
