<svg width="18" height="20" viewBox="0 0 18 20" fill="none" xmlns="http://www.w3.org/2000/svg">
<path d="M13.5329 9.26961C13.4459 9.22832 13.3574 9.18858 13.2678 9.15053C13.1118 6.30606 11.5409 4.6776 8.90305 4.66094C8.8911 4.66086 8.87922 4.66086 8.86727 4.66086C7.28952 4.66086 5.97732 5.32718 5.16968 6.53966L6.62039 7.52425C7.22373 6.61857 8.17062 6.4255 8.86796 6.4255C8.87601 6.4255 8.8841 6.4255 8.89207 6.42557C9.7606 6.43105 10.416 6.6809 10.8402 7.16813C11.1489 7.52284 11.3553 8.01302 11.4576 8.63165C10.6875 8.50216 9.85473 8.46234 8.96444 8.51284C6.45654 8.65577 4.84425 10.1029 4.95254 12.1137C5.00749 13.1337 5.52108 14.0112 6.39866 14.5845C7.14064 15.0691 8.09627 15.306 9.08945 15.2524C10.401 15.1812 11.43 14.6861 12.1478 13.7808C12.693 13.0933 13.0378 12.2024 13.19 11.0798C13.8151 11.453 14.2784 11.9442 14.5342 12.5346C14.9692 13.5382 14.9946 15.1875 13.6344 16.5321C12.4427 17.71 11.0102 18.2196 8.84531 18.2353C6.44385 18.2177 4.62765 17.4557 3.44681 15.9705C2.34105 14.5798 1.76959 12.571 1.74827 10C1.76959 7.42894 2.34105 5.42017 3.44681 4.02945C4.62765 2.54426 6.44382 1.78229 8.84528 1.76464C11.2642 1.78243 13.112 2.54806 14.3381 4.04042C14.9392 4.77225 15.3925 5.69258 15.6913 6.76566L17.3913 6.3169C17.0291 4.99606 16.4592 3.85789 15.6837 2.91396C14.1119 1.0007 11.8131 0.0203279 8.85121 0H8.83935C5.88346 0.0202573 3.61042 1.00435 2.0834 2.92493C0.724557 4.634 0.0236258 7.01205 7.36988e-05 9.99297L0 10L7.36988e-05 10.007C0.0236258 12.9879 0.724557 15.366 2.0834 17.0751C3.61042 18.9956 5.88346 19.9798 8.83935 20H8.85121C11.4792 19.982 13.3315 19.3013 14.8575 17.7928C16.854 15.8194 16.7939 13.3457 16.1359 11.8272C15.6638 10.7382 14.7637 9.85377 13.5329 9.26961ZM8.99555 13.4903C7.89638 13.5516 6.75446 13.0634 6.69815 12.0179C6.65642 11.2427 7.25576 10.3777 9.06301 10.2747C9.26998 10.2629 9.47307 10.2571 9.67259 10.2571C10.329 10.2571 10.9432 10.3202 11.5015 10.4409C11.2932 13.0141 10.0717 13.4319 8.99555 13.4903Z" fill="#FF5757"/>
</svg>
