<svg width="24" height="24" viewBox="0 0 24 24" fill="none" xmlns="http://www.w3.org/2000/svg">
<path fill-rule="evenodd" clip-rule="evenodd" d="M6.96142 6.22027C7.25432 5.92738 7.25432 5.4525 6.96142 5.15961C6.66853 4.86672 6.19366 4.86672 5.90076 5.15961L3.34076 7.71961C3.04787 8.0125 3.04787 8.48738 3.34076 8.78027L5.90076 11.3403C6.19366 11.6332 6.66853 11.6332 6.96142 11.3403C7.25432 11.0474 7.25432 10.5725 6.96142 10.2796L5.74187 9.06006H15.1309C17.4766 9.06006 19.3809 10.9643 19.3809 13.3101C19.3809 15.6558 17.4766 17.5601 15.1309 17.5601H7.13086C6.71665 17.5601 6.38086 17.8958 6.38086 18.3101C6.38086 18.7243 6.71665 19.0601 7.13086 19.0601H15.1309C18.3051 19.0601 20.8809 16.4843 20.8809 13.3101C20.8809 10.1358 18.3051 7.56006 15.1309 7.56006H5.62164L6.96142 6.22027Z" fill="white" fill-opacity="0.5"/>
</svg>
