<svg width="24" height="24" viewBox="0 0 24 24" fill="none" xmlns="http://www.w3.org/2000/svg">
<path d="M9 10C10.1046 10 11 9.10457 11 8C11 6.89543 10.1046 6 9 6C7.89543 6 7 6.89543 7 8C7 9.10457 7.89543 10 9 10Z" stroke="white" stroke-opacity="0.3" stroke-width="1.5" stroke-linecap="round" stroke-linejoin="round"/>
<path fill-rule="evenodd" clip-rule="evenodd" d="M9 1.25C6.42603 1.25 4.42914 1.7602 3.09467 3.09467C1.7602 4.42914 1.25 6.42603 1.25 9V15C1.25 17.574 1.7602 19.5709 3.09467 20.9053C4.42914 22.2398 6.42603 22.75 9 22.75H15C17.574 22.75 19.5709 22.2398 20.9053 20.9053C22.2398 19.5709 22.75 17.574 22.75 15V9C22.75 6.42603 22.2398 4.42914 20.9053 3.09467C19.5709 1.7602 17.574 1.25 15 1.25H9ZM2.75 9C2.75 6.57397 3.2398 5.07086 4.15533 4.15533C5.07086 3.2398 6.57397 2.75 9 2.75H15C17.426 2.75 18.9291 3.2398 19.8447 4.15533C20.7602 5.07086 21.25 6.57397 21.25 9V12.2673L20.8586 11.9311L20.8586 11.9311C19.7976 11.0198 18.1226 11.0197 17.0615 11.9309L17.0612 11.9311L12.9015 15.5009L12.9012 15.5011C12.4032 15.9289 11.5607 15.9297 11.0614 15.5035L10.735 15.2167L10.735 15.2167L10.7287 15.2112C9.75671 14.3761 8.24516 14.304 7.18208 15.0172L7.18186 15.0174L3.05327 17.7893C2.85315 17.0323 2.75 16.1133 2.75 15V9ZM3.64345 19.1998C3.79557 19.4417 3.96638 19.6557 4.15533 19.8447C5.07086 20.7602 6.57397 21.25 9 21.25H15C17.426 21.25 18.9291 20.7602 19.8447 19.8447C20.7602 18.9291 21.25 17.426 21.25 15V14.2446L19.8813 13.069L19.8812 13.069C19.3823 12.6404 18.5375 12.6404 18.0386 13.069L18.0384 13.0692L13.8786 16.639L13.8784 16.6392C12.8173 17.5504 11.1422 17.5503 10.0812 16.639L10.0748 16.6335L10.0748 16.6334L9.74837 16.3465C9.29993 15.9638 8.5336 15.9168 8.01776 16.2629L3.64345 19.1998Z" fill="white" fill-opacity="0.3"/>
</svg>
